<svg width="30" height="30" viewBox="0 0 30 30" fill="none" xmlns="http://www.w3.org/2000/svg">
<path d="M14.9944 11.2492C12.9307 11.2492 11.2464 12.9335 11.2464 14.9973C11.2464 17.0611 12.9307 18.7454 14.9944 18.7454C17.0583 18.7454 18.7426 17.0611 18.7426 14.9973C18.7426 12.9335 17.0583 11.2492 14.9944 11.2492ZM26.2359 14.9973C26.2359 13.4452 26.25 11.9071 26.1628 10.3579C26.0757 8.55836 25.6652 6.96125 24.3492 5.64535C23.0305 4.32663 21.4363 3.91892 19.6367 3.83176C18.0846 3.74459 16.5466 3.75865 14.9972 3.75865C13.4452 3.75865 11.9072 3.74459 10.3578 3.83176C8.55831 3.91892 6.96125 4.32944 5.64534 5.64535C4.32663 6.96407 3.91892 8.55836 3.83175 10.3579C3.74458 11.9099 3.75865 13.448 3.75865 14.9973C3.75865 16.5465 3.74458 18.0875 3.83175 19.6367C3.91892 21.4362 4.32943 23.0333 5.64534 24.3492C6.96406 25.6679 8.55831 26.0756 10.3578 26.1628C11.91 26.25 13.448 26.2359 14.9972 26.2359C16.5494 26.2359 18.0874 26.25 19.6367 26.1628C21.4363 26.0756 23.0333 25.6651 24.3492 24.3492C25.668 23.0305 26.0757 21.4362 26.1628 19.6367C26.2528 18.0875 26.2359 16.5494 26.2359 14.9973ZM14.9944 20.7642C11.8031 20.7642 9.22752 18.1887 9.22752 14.9973C9.22752 11.8059 11.8031 9.23038 14.9944 9.23038C18.1858 9.23038 20.7614 11.8059 20.7614 14.9973C20.7614 18.1887 18.1858 20.7642 14.9944 20.7642ZM20.9976 10.341C20.2525 10.341 19.6508 9.73928 19.6508 8.99413C19.6508 8.24906 20.2525 7.64733 20.9976 7.64733C21.7427 7.64733 22.3444 8.24906 22.3444 8.99413C22.3447 9.17106 22.31 9.34634 22.2424 9.50981C22.1748 9.67335 22.0755 9.82192 21.9504 9.94702C21.8253 10.0721 21.6768 10.1713 21.5133 10.2389C21.3497 10.3066 21.1745 10.3412 20.9976 10.341Z" fill="#FAEADE"/>
</svg>
