<svg width="28" height="29" viewBox="0 0 28 29" fill="none" xmlns="http://www.w3.org/2000/svg">
<path d="M2.73101 7.66623C2.52257 8.16249 2.43101 8.68753 2.3849 9.25178C2.33332 9.88316 2.33333 10.6582 2.33334 11.5974V16.8271C2.33333 17.7662 2.33332 18.5413 2.3849 19.1727C2.43848 19.8285 2.55348 20.4313 2.84198 20.9975C3.28939 21.8756 4.0033 22.5895 4.88139 23.0369C5.44761 23.3254 6.05044 23.4404 6.70622 23.494C7.3376 23.5456 8.11267 23.5456 9.05178 23.5456H18.9482C19.8873 23.5456 20.6624 23.5456 21.2938 23.494C21.9496 23.4404 22.5524 23.3254 23.1186 23.0369C23.9967 22.5895 24.7106 21.8756 25.158 20.9975C25.4465 20.4313 25.5615 19.8285 25.6151 19.1727C25.6667 18.5413 25.6667 17.7662 25.6667 16.8271V11.5974C25.6667 10.6582 25.6667 9.88317 25.6151 9.25178C25.569 8.68752 25.4775 8.16248 25.269 7.66621L16.9551 14.4685C15.2361 15.875 12.7639 15.875 11.0449 14.4685L2.73101 7.66623Z" fill="#FAEADE"/>
<path d="M23.8261 5.83195C23.6052 5.6638 23.3685 5.51488 23.1186 5.38754C22.5524 5.09904 21.9496 4.98405 21.2938 4.93047C20.6624 4.87888 19.8873 4.87889 18.9482 4.87891H9.05183C8.11271 4.87889 7.3376 4.87888 6.70622 4.93047C6.05044 4.98405 5.44762 5.09904 4.88139 5.38754C4.63147 5.51488 4.39485 5.66381 4.17389 5.83197L12.5224 12.6626C13.382 13.3658 14.618 13.3658 15.4775 12.6626L23.8261 5.83195Z" fill="#FAEADE"/>
</svg>
