<svg width="30" height="30" viewBox="0 0 30 30" fill="none" xmlns="http://www.w3.org/2000/svg">
<g clip-path="url(#clip0_2042_384)">
<path d="M20.5062 7.58234C19.6861 6.64613 19.2341 5.44381 19.2345 4.19922H15.5274V19.0754C15.4989 19.8803 15.159 20.6429 14.5794 21.2023C13.9998 21.7618 13.2258 22.0745 12.4202 22.0745C10.7167 22.0745 9.30105 20.6829 9.30105 18.9554C9.30105 16.8919 11.2926 15.3443 13.344 15.9802V12.1891C9.2051 11.6373 5.58203 14.8524 5.58203 18.9554C5.58203 22.9503 8.89321 25.7936 12.4083 25.7936C16.1753 25.7936 19.2345 22.7344 19.2345 18.9554V11.4094C20.7376 12.4889 22.5424 13.0681 24.3931 13.0649V9.3579C24.3931 9.3579 22.1377 9.46587 20.5062 7.58234Z" fill="#FAEADE"/>
</g>
<defs>
<clipPath id="clip0_2042_384">
<rect width="28.7925" height="28.7925" fill="white" transform="translate(0.589844 0.601562)"/>
</clipPath>
</defs>
</svg>
