<svg width="24" height="20" viewBox="0 0 24 20" fill="none" xmlns="http://www.w3.org/2000/svg">
<path fill-rule="evenodd" clip-rule="evenodd" d="M12.0008 0.398438C13.0265 0.398438 14.0786 0.424833 15.0984 0.468022L16.3029 0.525607L17.4558 0.593989L18.5355 0.667172L19.5216 0.743948C20.5918 0.825862 21.5988 1.28255 22.3656 2.03366C23.1322 2.78477 23.6095 3.7822 23.7133 4.85048L23.7613 5.36032L23.8513 6.45206C23.9352 7.58339 23.9977 8.81664 23.9977 9.99591C23.9977 11.1753 23.9352 12.4085 23.8513 13.5398L23.7613 14.6315C23.7457 14.8067 23.7301 14.9759 23.7133 15.1414C23.6095 16.2098 23.132 17.2074 22.365 17.9586C21.5981 18.7097 20.5909 19.1663 19.5204 19.248L18.5367 19.3235L17.4569 19.3979L16.3029 19.4663L15.0984 19.5239C14.0665 19.5687 13.0337 19.5919 12.0008 19.5935C10.9679 19.5919 9.93511 19.5687 8.90319 19.5239L7.69872 19.4663L6.5458 19.3979L5.46608 19.3235L4.47995 19.248C3.40976 19.166 2.40275 18.7093 1.63605 17.9582C0.869358 17.2071 0.392094 16.2097 0.288232 15.1414L0.24025 14.6315L0.150273 13.5398C0.0585401 12.3607 0.00972234 11.1786 0.00390625 9.99591C0.00390625 8.81664 0.0662924 7.58339 0.150273 6.45206L0.24025 5.36032C0.255841 5.18519 0.271439 5.01603 0.288232 4.85048C0.392058 3.78242 0.869143 2.78512 1.63559 2.03402C2.40205 1.28294 3.40878 0.826129 4.47874 0.743948L5.46371 0.667172L6.54342 0.593989L7.6975 0.525607L8.90196 0.468022C9.93432 0.423192 10.9675 0.399992 12.0008 0.398438ZM9.6014 7.08672V12.9052C9.6014 13.4594 10.2012 13.8049 10.6811 13.529L15.7198 10.6198C15.8294 10.5566 15.9206 10.4657 15.9838 10.3563C16.0472 10.2467 16.0805 10.1225 16.0805 9.99591C16.0805 9.86944 16.0472 9.74513 15.9838 9.63565C15.9206 9.52609 15.8294 9.43525 15.7198 9.37212L10.6811 6.46408C10.5716 6.40088 10.4475 6.36763 10.3211 6.36763C10.1947 6.36763 10.0706 6.40095 9.96109 6.46415C9.85168 6.52742 9.76084 6.61834 9.69764 6.72782C9.63451 6.8373 9.60133 6.96147 9.6014 7.08787V7.08672Z" fill="#FAEADE"/>
</svg>
