<svg width="105" height="105" viewBox="0 0 105 105" fill="none" xmlns="http://www.w3.org/2000/svg">
<g clip-path="url(#clip0_2089_946)">
<g clip-path="url(#clip1_2089_946)">
<path d="M45.7435 94.7645C32.3572 94.7645 30.0764 77.4333 27.2683 75.1584C21.6359 70.5955 16.3342 78.4261 12.05 73.7115C7.76579 68.9968 15.8822 62.5341 18.1363 58.0258C21.1359 52.0266 15.2795 51.9552 16.3342 46.9983C17.7529 40.3311 36.7769 41.2939 35.1533 29.4107C33.8919 20.1769 31.2059 14.4419 35.9404 13.0722C41.9909 11.3218 44.706 17.5935 41.5356 26.143C38.9992 32.9826 41.1056 41.4707 42.4758 44.8598C43.8461 48.249 68.6174 44.8598 68.6174 44.8598C63.3601 61.505 93.373 49.4571 90.3615 58.8199C87.3492 68.1828 72.7651 52.7861 71.8851 58.8199C71.0052 64.8538 80.85 65.9436 73.8747 73.7115C66.8996 81.4789 60.4 73.7115 55.5466 78.4261C50.6932 83.1407 58.0897 94.7645 45.7435 94.7645Z" fill="#E9AA56"/>
<path d="M35.0418 40.6518C34.6466 37.7117 36.9331 35.0971 39.8998 35.0971H64.726C67.6663 35.0971 69.945 37.6679 69.5921 40.587L66.1282 69.2397C65.8307 71.7013 63.7416 73.553 61.2621 73.553H43.7519C41.2972 73.553 39.2211 71.7374 38.8941 69.3046L35.0418 40.6518Z" fill="#F2D5C0"/>
<path d="M66.903 95.8286C70.5124 95.8286 73.4383 92.9026 73.4383 89.2932C73.4383 85.6838 70.5124 82.7578 66.903 82.7578C63.2936 82.7578 60.3676 85.6838 60.3676 89.2932C60.3676 92.9026 63.2936 95.8286 66.903 95.8286Z" fill="#E9AA56"/>
<path d="M75.007 9.84896C66.2104 6.85646 66.2133 18.8065 63.0513 24.6846C62.7224 25.2961 63.1452 26.1345 63.8389 26.1032C81.5963 25.3018 82.2696 12.3195 75.007 9.84896Z" fill="#E9AA56"/>
<path d="M60.5655 43.4872H60.5655C59.212 43.4872 58.1147 44.5844 58.1147 45.9379V49.7862C58.1147 51.1397 59.212 52.2369 60.5655 52.2369H60.5655C61.919 52.2369 63.0163 51.1397 63.0163 49.7862V45.9379C63.0163 44.5844 61.919 43.4872 60.5655 43.4872Z" fill="#523122"/>
<path d="M35.3822 30.7054C37.8334 33.1566 41.158 34.5337 44.6247 34.5337H52.2813H59.938C63.4046 34.5337 66.7293 33.1566 69.1805 30.7054" stroke="#523122" stroke-width="3.2677" stroke-linecap="round"/>
<path d="M70.4811 41.6055C70.8089 38.011 74.0006 35.0971 77.61 35.0971H83.2509C83.7311 35.0971 84.1075 35.5098 84.0641 35.9882L83.9225 37.5378C83.5951 41.1323 80.4035 44.0462 76.7941 44.0462H70.2587L70.4811 41.6055Z" fill="#C88E64"/>
<path d="M34.0725 41.6055C33.7448 38.011 30.5531 35.0971 26.9436 35.0971H21.3031C20.8226 35.0971 20.4459 35.5098 20.4895 35.9882L20.6308 37.5378C20.9586 41.1323 24.1502 44.0462 27.7596 44.0462H34.295L34.0725 41.6055Z" fill="#523122"/>
<path fill-rule="evenodd" clip-rule="evenodd" d="M62.1939 35.0971V35.1301C58.3511 36.5978 55.0719 37.9435 53.456 45.3598C53.3263 45.9554 53.21 46.5368 53.0978 47.0974C52.2198 51.4874 51.5959 54.6066 46.7516 53.2986C40.3086 51.5589 38.495 53.9472 37.0886 55.8407L35.0466 40.6518C34.7007 38.0792 36.4081 35.7558 38.8277 35.2152C38.9466 35.1887 39.0671 35.1664 39.1892 35.1486C39.4223 35.1148 39.6611 35.0971 39.9044 35.0971H62.1939ZM41.3528 48.7822C41.9601 48.1098 42.9123 47.717 43.8968 47.7021C44.8769 47.6874 45.7955 48.0468 46.3807 48.755L47.6403 47.7144C46.6803 46.5525 45.2475 46.0478 43.8722 46.0685C42.5011 46.0892 41.0939 46.6314 40.1403 47.687L41.3528 48.7822Z" fill="#523122"/>
<path d="M67.4109 58.6795L66.1343 69.2393C65.8368 71.7008 63.7477 73.5525 61.2682 73.5525H43.758C41.3033 73.5525 39.2272 71.7368 38.9001 69.3041L37.4717 58.6795H67.4109Z" fill="#FAEADE"/>
<path d="M63.7206 62.1895C63.487 61.3179 62.5911 60.8007 61.7195 61.0342C60.8479 61.2678 60.3307 62.1637 60.5642 63.0353L61.0981 65.0276C61.3316 65.8992 62.2275 66.4165 63.0991 66.1829C63.9707 65.9494 64.488 65.0535 64.2544 64.1819L63.7206 62.1895Z" fill="#C88E64"/>
<path d="M41.1537 62.1895C41.3872 61.3179 42.2831 60.8007 43.1547 61.0342C44.0263 61.2678 44.5436 62.1637 44.31 63.0353L43.7762 65.0276C43.5426 65.8992 42.6467 66.4165 41.7751 66.1829C40.9035 65.9494 40.3863 65.0535 40.6198 64.1819L41.1537 62.1895Z" fill="#C88E64"/>
<path d="M46.2131 41.7496C43.2167 41.7496 43.248 37.7299 44.6259 34.7207C43.0603 33.5697 42.7531 31.8136 43.4044 30.302C44.0556 28.7902 46.0319 28.4086 47.5734 28.8256C47.9766 27.5408 49.5233 24.9712 52.486 24.9712C55.4487 24.9712 56.5278 27.5408 56.6969 28.8256C58.7699 27.4148 61.4799 28.7685 61.4799 31.4709C61.4799 36.2322 56.4168 36.8374 55.1313 35.401C55.1313 36.8228 53.8011 38.6396 52.486 39.0123C51.1617 39.3877 50.2058 38.3738 50.1615 37.8951C50.1806 39.1799 48.5968 41.7496 46.2131 41.7496Z" fill="#C88E64"/>
<path d="M26.1336 59.1452C22.4235 60.1394 19.9347 62.8817 20.7447 65.9044C21.5546 68.9272 25.3279 71.5126 28.8917 67.7186C32.4555 63.9247 36.304 64.4283 35.6307 61.9158C34.8208 58.893 29.8437 58.1511 26.1336 59.1452Z" fill="#FAEADE"/>
</g>
</g>
<defs>
<clipPath id="clip0_2089_946">
<rect width="104.566" height="104.566" fill="white"/>
</clipPath>
<clipPath id="clip1_2089_946">
<rect width="104.566" height="104.566" fill="white"/>
</clipPath>
</defs>
</svg>
