<svg width="106" height="105" viewBox="0 0 106 105" fill="none" xmlns="http://www.w3.org/2000/svg">
<g clip-path="url(#clip0_2089_964)">
<g clip-path="url(#clip1_2089_964)">
<path fill-rule="evenodd" clip-rule="evenodd" d="M56.8922 17.0807C58.298 18.4864 58.0427 20.5429 56.6169 21.9687C55.1912 23.3944 52.5773 24.2071 51.1716 22.8013C49.7658 21.3956 50.5272 18.7305 51.953 17.3047C53.3788 15.8789 55.4865 15.675 56.8922 17.0807ZM30.8765 52.2838C32.4705 53.2873 34.5692 55.9991 30.2124 58.8192C24.7663 62.3444 18.5234 70.5705 23.9693 75.1577C26.6615 77.4254 28.9153 75.9931 31.2804 74.4901C33.6997 72.9526 36.2356 71.3411 39.4765 73.54C41.518 74.925 43.2657 77.4722 45.0988 80.1438C49.0206 85.8594 53.3337 92.1455 61.752 88.842C65.1173 87.5212 65.0693 82.7152 65.0199 77.7631C64.9398 69.7492 64.856 61.3533 79.2264 66.7277C88.8852 70.3402 88.5248 58.8192 81.4787 56.4999C75.0211 54.374 70.9649 55.8779 67.5368 57.1488C64.739 58.1861 62.3597 59.0682 59.4348 57.6954C56.2644 56.2072 55.7099 49.3585 55.1461 42.3951C54.5524 35.063 53.9485 27.6038 50.2696 26.1422C46.4395 24.6205 44.8818 27.0171 43.1495 29.6824C41.6376 32.0085 39.9927 34.5392 36.5882 34.8487C32.4207 35.2276 32.3163 32.1791 32.2065 28.9761C32.1239 26.5641 32.0383 24.0644 30.2124 22.8745C25.9618 20.1046 9.88948 30.2687 30.8765 52.2838ZM80.465 84.0416C77.9128 86.5938 74.2087 86.1603 71.6565 83.608C69.1043 81.0558 67.6725 76.3539 70.2248 73.8017C72.7771 71.2494 77.5721 72.5881 80.1243 75.1403C82.6764 77.6926 83.0174 81.4894 80.465 84.0416ZM27.6098 81.203C25.6893 84.529 25.8686 88.2283 28.5787 89.7927C31.2888 91.358 35.7851 90.5175 35.6224 85.3149C35.5478 82.9316 36.1532 81.1435 36.6146 79.781C37.1606 78.1688 37.5051 77.1514 36.2843 76.4465C33.5742 74.8819 29.5303 77.8766 27.6098 81.203Z" fill="#E9AA56"/>
<path d="M75.92 58.524C69.5107 57.7679 59.2735 58.6412 50.2594 65.8209C50.0531 65.6716 49.8725 65.5194 49.7197 65.3666C49.5668 65.2137 49.4147 65.0331 49.2654 64.8268C56.4449 55.8127 57.3184 45.5756 56.5622 39.1663C58.0893 37.9293 59.7643 36.7404 61.5185 35.6289C62.4991 40.693 61.9543 48.9612 56.8393 57.394C64.3188 48.5411 66.5564 39.1159 66.4204 32.8259C67.5942 32.2221 68.7747 31.6609 69.9441 31.1498C69.7689 36.4197 67.8527 43.4782 63.3781 50.8552C69.6066 44.0039 72.5075 35.8664 73.3254 29.8018C74.5662 29.3566 75.7726 28.981 76.9208 28.6849C76.5639 32.9236 74.4773 37.5493 72.9882 40.8506C72.8769 41.0974 72.7688 41.3369 72.6651 41.5681C76.1981 38.0351 78.5029 33.5943 79.6602 28.1161C80.4961 27.9901 81.2817 27.9216 82.0032 27.9159C81.8536 29.5499 81.2077 31.7425 80.4171 33.8162C81.3315 32.7121 82.5863 30.4131 83.1582 27.967C84.3833 28.0934 85.3573 28.4566 85.9936 29.0929C86.6298 29.7291 86.9926 30.7025 87.1189 31.9283C84.6728 32.5002 82.374 33.7543 81.2696 34.6691C83.344 33.8784 85.5367 33.2329 87.1704 33.083C87.1647 33.8049 87.0964 34.5901 86.9701 35.426C81.4916 36.5834 77.0512 38.888 73.518 42.4211C73.7494 42.3174 73.9888 42.2093 74.2356 42.098C77.5369 40.6089 82.1624 38.5223 86.4014 38.1654C86.1054 39.3137 85.7298 40.52 85.2841 41.7608C79.2198 42.5787 71.0823 45.4795 64.231 51.7081C71.6081 47.2334 78.6666 45.3173 83.9369 45.1421C83.4253 46.3116 82.8638 47.492 82.2606 48.6658C75.9704 48.5298 66.5452 50.7675 57.6922 58.2469C66.1251 53.1319 74.3933 52.5871 79.4574 53.5677C78.3459 55.3219 77.157 56.997 75.92 58.524Z" fill="#523122"/>
<path d="M72.0323 62.6337C67.3436 60.7807 59.2664 59.9356 50.3341 65.8741C53.7376 68.2565 63.6858 69.8738 72.0323 62.6337Z" fill="#523122"/>
<path d="M49.2121 64.7521C55.1506 55.8199 54.3056 47.7427 52.4525 43.054C45.2125 51.4004 46.8298 61.3485 49.2121 64.7521Z" fill="#523122"/>
<path d="M58.4077 58.0212L41.0669 40.6804C36.6467 36.2603 29.4802 36.2603 25.06 40.6804C20.6398 45.1006 20.6398 52.2671 25.06 56.6873L42.4008 74.0281C46.821 78.4483 53.9875 78.4483 58.4077 74.0281C62.8279 69.6079 62.8279 62.4414 58.4077 58.0212Z" fill="#FAEADE"/>
<path d="M25.06 40.6804C29.4802 36.2602 36.6468 36.2602 41.0669 40.6804L49.7373 49.3508L33.7304 65.3577L25.06 56.6873C20.6398 52.2671 20.6398 45.1006 25.06 40.6804Z" fill="#523122"/>
<path d="M29.5728 46.0157C31.2574 44.3311 31.8217 42.1642 30.8332 41.1757C29.8447 40.1872 27.6778 40.7515 25.9933 42.4361C24.3087 44.1206 23.7444 46.2875 24.7329 47.276C25.7214 48.2645 27.8883 47.7002 29.5728 46.0157Z" fill="#C88E64"/>
</g>
</g>
<defs>
<clipPath id="clip0_2089_964">
<rect width="104.566" height="104.566" fill="white" transform="translate(0.716431)"/>
</clipPath>
<clipPath id="clip1_2089_964">
<rect width="104.566" height="104.566" fill="white" transform="translate(0.716431)"/>
</clipPath>
</defs>
</svg>
