<svg width="105" height="105" viewBox="0 0 105 105" fill="none" xmlns="http://www.w3.org/2000/svg">
<g clip-path="url(#clip0_2089_987)">
<g clip-path="url(#clip1_2089_987)">
<path d="M73.5924 24.2713C75.7563 22.1074 76.1437 18.9864 74.0102 16.853C71.8768 14.7196 68.6781 15.0292 66.5142 17.193C64.3503 19.3568 63.1948 23.4016 65.3282 25.535C67.4616 27.6685 71.4286 26.4351 73.5924 24.2713Z" fill="#E9AA56"/>
<path d="M20.3895 79.8138C14.5174 71.6759 34.533 70.8598 34.533 55.0248C34.5328 38.1174 13.9747 35.0436 21.4622 25.663C28.3526 17.0305 38.7393 33.4281 54.1392 35.8547C69.539 38.2813 79.2634 19.1112 85.3301 27.1201C91.3966 35.1291 70.4777 40.1909 73.7453 46.7263C77.013 53.2617 90.0839 48.9424 90.0839 56.5294C90.0839 64.1164 79.5061 57.4514 70.4777 66.3325C61.4492 75.2137 71.8806 91.0337 65.6746 92.4743C58.6113 94.1135 63.3897 79.0092 49.6572 83.155C42.5742 85.293 47.7178 79.4033 41.0684 74.9229C34.419 70.4424 26.2617 87.9514 20.3895 79.8138Z" fill="#E9AA56"/>
<path d="M70.4227 39.791L53.0819 22.4502C48.6618 18.03 41.4952 18.03 37.075 22.4502C32.6549 26.8704 32.6549 34.0369 37.075 38.4571L54.4158 55.7979C58.836 60.2181 66.0025 60.2181 70.4227 55.7979C74.8429 51.3777 74.8429 44.2112 70.4227 39.791Z" fill="#FAEADE"/>
<path d="M37.0751 22.4502C41.4953 18.03 48.6618 18.03 53.082 22.4502L61.7524 31.1206L45.7455 47.1274L37.0751 38.457C32.655 34.0369 32.655 26.8704 37.0751 22.4502Z" fill="#523122"/>
<path d="M41.5879 27.7854C43.2724 26.1009 43.8367 23.934 42.8482 22.9455C41.8597 21.957 39.6928 22.5213 38.0083 24.2058C36.3237 25.8904 35.7594 28.0573 36.7479 29.0458C37.7364 30.0343 39.9033 29.47 41.5879 27.7854Z" fill="#C88E64"/>
<path d="M47.5652 24.5663C48.7564 24.5663 49.722 23.803 49.722 22.8614C49.722 21.9198 48.7564 21.1565 47.5652 21.1565C46.3741 21.1565 45.4084 21.9198 45.4084 22.8614C45.4084 23.803 46.3741 24.5663 47.5652 24.5663Z" fill="#C88E64"/>
<path d="M47.7534 55.4537L27.2371 49.9564C22.0075 48.5551 16.6321 51.6586 15.2308 56.8882C13.8296 62.1178 16.9331 67.4932 22.1627 68.8945L42.6789 74.3918C47.9086 75.7931 53.284 72.6896 54.6852 67.46C56.0865 62.2303 52.983 56.8549 47.7534 55.4537Z" fill="#F2D5C0"/>
<path d="M15.2309 56.8882C16.6321 51.6586 22.0075 48.555 27.2372 49.9563L37.4953 52.705L32.4209 71.6431L22.1627 68.8945C16.9331 67.4932 13.8296 62.1178 15.2309 56.8882Z" fill="#523122"/>
<path d="M52.1956 63.1412C51.6616 61.1481 50.2806 59.7865 49.1111 60.0999C47.9417 60.4132 47.4265 62.2829 47.9605 64.2759C48.4946 66.269 49.8755 67.6306 51.045 67.3172C52.2145 67.0039 52.7297 65.1342 52.1956 63.1412Z" fill="#FAEADE"/>
<path d="M22.3989 55.864C23.2924 55.3482 23.6861 54.3575 23.2783 53.6512C22.8706 52.945 21.8157 52.7906 20.9223 53.3064C20.0288 53.8223 19.6351 54.813 20.0429 55.5192C20.4506 56.2255 21.5055 56.3798 22.3989 55.864Z" fill="#C88E64"/>
</g>
</g>
<defs>
<clipPath id="clip0_2089_987">
<rect width="104.566" height="104.566" fill="white" transform="translate(0 0.299011)"/>
</clipPath>
<clipPath id="clip1_2089_987">
<rect width="104.566" height="104.566" fill="white" transform="translate(0 0.299011)"/>
</clipPath>
</defs>
</svg>
