<svg width="106" height="105" viewBox="0 0 106 105" fill="none" xmlns="http://www.w3.org/2000/svg">
<g clip-path="url(#clip0_2089_1001)">
<g clip-path="url(#clip1_2089_1001)">
<path fill-rule="evenodd" clip-rule="evenodd" d="M70.6102 22.8272C72.415 19.7014 71.8754 16.0112 68.7496 14.2065C65.6238 12.4019 62.0442 13.7138 60.2394 16.8397C58.4348 19.9655 58.3828 24.9435 61.5086 26.7483C64.6344 28.5529 68.8056 25.953 70.6102 22.8272ZM89.1515 69.1098C85.5528 77.1806 69.3982 80.2641 63.5665 73.896C58.7961 68.687 52.0405 73.1889 44.9084 77.9416C37.7203 82.7319 30.1499 87.7768 23.8441 83.3915C16.6223 78.37 20.9382 71.4241 25.5507 64.001C28.9616 58.5114 32.5348 52.7609 31.7235 47.3347C31.1045 43.1942 28.027 38.9936 25.0787 34.9697C20.9986 29.4008 17.1663 24.1702 20.4412 19.9051C26.3204 12.2484 34.2385 20.0312 46.3907 32.9759C55.7133 42.9065 61.615 38.4363 67.2375 34.1776C71.0052 31.3238 74.6476 28.565 79.1098 30.2982C84.1637 32.2612 83.7534 37.8293 83.1478 46.0615V46.0629C83.1003 46.6999 83.0528 47.3531 83.0054 48.0217C82.7134 52.2024 84.7894 54.9385 86.777 57.5571C89.2142 60.7686 91.5171 63.8034 89.1515 69.1098ZM57.4123 94.0034C53.9393 94.934 50.7883 92.0745 49.6461 87.8122C48.5039 83.5491 49.3564 77.8306 52.8295 76.9C54.3939 76.4808 54.9406 77.5873 55.8069 79.3407C56.5392 80.8232 57.4999 82.7673 59.4968 84.6431C63.8559 88.738 60.8853 93.0727 57.4123 94.0034Z" fill="#E9AA56"/>
<path fill-rule="evenodd" clip-rule="evenodd" d="M61.1216 31.9652C60.87 32.0555 60.7304 32.3211 60.7878 32.5823C61.4238 35.4768 62.4364 38.3506 64.1084 40.8023C65.0567 42.1927 66.4174 43.0929 67.7803 43.9945C69.2888 44.9923 70.8 45.992 71.7579 47.66C72.9114 49.6689 73.3014 51.8905 73.3944 54.1624C73.4128 54.6099 73.9126 54.8654 74.2492 54.5701C78.1579 51.1409 77.75 45.0714 74.4582 39.3697C71.1424 33.6266 66.1825 30.1487 61.1216 31.9652ZM71.4357 56.2485C71.6572 56.1657 71.7938 55.9438 71.7753 55.7079C71.5865 53.2907 71.0353 50.8897 69.8197 48.773C68.9196 47.2056 67.4399 46.2312 65.9511 45.2508C64.5809 44.3485 63.2028 43.4411 62.262 42.0616C60.5701 39.5807 59.9243 36.6389 59.4352 33.6813C59.3701 33.2871 58.9247 33.086 58.6048 33.3253C54.0427 36.736 54.4965 42.9816 57.923 48.9164C61.2692 54.7124 66.435 58.1175 71.4357 56.2485ZM41.7798 40.6476C41.7633 40.285 41.4869 39.9856 41.1251 39.9556C33.8495 39.3518 28.5669 45.656 26.2365 54.3532C23.9229 62.9875 25.5209 71.0909 31.8521 74.2146C32.3974 74.4837 32.9631 73.9729 32.8299 73.3796C32.1536 70.3674 31.8843 67.3168 32.6913 64.2768C33.3613 61.7526 34.9918 59.9106 36.6194 58.0719C38.09 56.4106 39.5584 54.7517 40.3135 52.5949C41.6448 48.7921 41.9628 44.6672 41.7798 40.6476ZM35.4964 74.8376C35.5552 75.1533 35.8122 75.3964 36.1319 75.4271C43.347 76.121 48.9251 69.84 51.277 61.0628C53.6851 52.0754 52.0855 43.7249 44.9038 40.8549C44.4002 40.6537 43.8868 41.0739 43.9399 41.6137C44.3378 45.6644 44.5246 49.7495 43.1776 53.5976C42.4285 55.7374 40.9402 57.4117 39.4602 59.0766C37.8521 60.8855 36.2538 62.6835 35.6243 65.0554C34.7739 68.2586 34.8947 71.6011 35.4964 74.8376ZM76.5212 74.3528C76.7414 74.3427 76.9232 74.1749 76.9414 73.9552C77.3081 69.5371 73.4799 66.3291 68.1984 64.9139C62.9552 63.5091 58.0343 64.4794 56.1374 68.3241C55.974 68.6553 56.2842 68.9988 56.6444 68.9179C58.4736 68.5073 60.3261 68.3437 62.1722 68.8337C63.705 69.2406 64.8236 70.2307 65.9401 71.2191C66.949 72.1122 67.9564 73.0038 69.2661 73.4623C71.5755 74.2708 74.0802 74.4639 76.5212 74.3528ZM55.7591 70.5372C55.5673 70.5728 55.4197 70.7289 55.4011 70.9231C54.9797 75.3045 58.7939 78.6919 64.1239 80.12C69.5816 81.5825 74.6525 80.611 76.3953 76.2498C76.5175 75.944 76.2624 75.6322 75.9346 75.6645C73.4747 75.9061 70.994 76.0196 68.6573 75.2016C67.3578 74.7467 66.3411 73.8429 65.3301 72.9442C64.2316 71.9677 63.1398 70.9971 61.6994 70.6147C59.7542 70.0984 57.7245 70.1717 55.7591 70.5372Z" fill="#523122"/>
</g>
</g>
<defs>
<clipPath id="clip0_2089_1001">
<rect width="104.566" height="104.566" fill="white" transform="translate(0.716431 0.299011)"/>
</clipPath>
<clipPath id="clip1_2089_1001">
<rect width="104.566" height="104.566" fill="white" transform="translate(0.716431 0.299011)"/>
</clipPath>
</defs>
</svg>
