<svg width="105" height="105" viewBox="0 0 105 105" fill="none" xmlns="http://www.w3.org/2000/svg">
<g clip-path="url(#clip0_2089_1007)">
<g clip-path="url(#clip1_2089_1007)">
<path d="M81.2055 23.8166C71.9285 19.9779 67.4541 32.5467 55.9829 36.6289C41.4825 41.789 10.1331 26.9823 10.1331 46.5885C10.1331 69.3409 29.3308 61.6788 45.6693 68.9517C62.0078 76.2247 66.6601 93.8007 79.7759 89.8859C88.5533 87.2653 80.7355 73.5963 79.7759 60.5783C78.8162 47.5602 90.4822 27.6554 81.2055 23.8166Z" fill="#E9AA56"/>
<path d="M46.2293 23.306C48.034 20.1802 47.4944 16.4901 44.3686 14.6854C41.2428 12.8807 37.6632 14.1927 35.8584 17.3185C34.0538 20.4443 34.0018 25.4224 37.1276 27.2271C40.2534 29.0317 44.4246 26.4319 46.2293 23.306Z" fill="#E9AA56"/>
<path d="M89.7107 53.5655C91.6935 51.5826 92.0482 48.7226 90.0936 46.7676C88.1382 44.8126 85.2071 45.0962 83.2236 47.0791C81.2408 49.0621 80.1822 52.7686 82.1369 54.7236C84.0923 56.6787 87.7272 55.5485 89.7107 53.5655Z" fill="#E9AA56"/>
<path fill-rule="evenodd" clip-rule="evenodd" d="M55.4802 81.9155C71.8918 81.9155 85.196 68.6112 85.196 52.1997C85.196 35.7882 71.8918 22.4841 55.4802 22.4841C39.0688 22.4841 25.7646 35.7882 25.7646 52.1997C25.7646 68.6112 39.0688 81.9155 55.4802 81.9155ZM60.8372 64.0404H67.3414L56.8231 50.8832L66.6725 39.2498H60.1681L51.3967 50.3257V39.2498H46.1189V64.0404H51.3967V56.4211L53.3294 54.1167L60.8372 64.0404Z" fill="#523122"/>
<path d="M65.9063 34.6157C69.9113 36.928 74 37.344 75.0388 35.5448C76.0775 33.7456 73.6729 30.4126 69.6679 28.1004C65.6629 25.7881 61.5742 25.3721 60.5354 27.1713C59.4967 28.9704 61.9013 32.3034 65.9063 34.6157Z" fill="#FAEADE"/>
<path d="M70.4876 52.506C70.4876 58.8225 75.6081 63.943 81.9246 63.943C88.2411 63.943 93.3616 58.8225 93.3616 52.506C93.3616 46.1895 88.2411 41.069 81.9246 41.069C75.6081 41.069 70.4876 46.1895 70.4876 52.506Z" fill="#C88E64"/>
<path d="M25.7615 88.4506C30.2732 88.4506 33.9307 84.7932 33.9307 80.2814C33.9307 75.7697 30.2732 72.1122 25.7615 72.1122C21.2498 72.1122 17.5923 75.7697 17.5923 80.2814C17.5923 84.7932 21.2498 88.4506 25.7615 88.4506Z" fill="#C88E64"/>
<path d="M84.8817 49.4008C86.756 51.2751 89.0189 52.051 89.9361 51.1338C90.8533 50.2165 90.0775 47.9536 88.2032 46.0793C86.3289 44.205 84.0659 43.4291 83.1487 44.3463C82.2315 45.2635 83.0074 47.5265 84.8817 49.4008Z" fill="#F2D5C0"/>
</g>
</g>
<defs>
<clipPath id="clip0_2089_1007">
<rect width="104.566" height="104.566" fill="white" transform="translate(0.433594 0.299011)"/>
</clipPath>
<clipPath id="clip1_2089_1007">
<rect width="104.566" height="104.566" fill="white" transform="translate(0.433594 0.299011)"/>
</clipPath>
</defs>
</svg>
