<svg width="97" height="58" viewBox="0 0 97 58" fill="none" xmlns="http://www.w3.org/2000/svg">
<g clip-path="url(#clip0_2042_241)">
<path d="M11.2732 57.5895C9.27835 57.5895 7.44549 56.6632 6.36793 55.1119C5.8121 54.3095 5.39438 53.3264 5.1966 52.3398C3.36203 43.2609 1.71501 34.9723 0.160062 27.0004C-0.0547671 25.8985 -0.0530621 24.7122 0.163472 23.6619C0.729528 20.9277 2.86247 19.0906 5.47281 19.0906C6.45659 19.0906 7.46595 19.3644 8.38835 19.8809C9.17605 20.3217 9.93136 20.9295 10.6355 21.6853C12.7088 23.9116 14.7957 26.1878 16.8144 28.3899L16.8894 28.4708L17.9499 26.3909C19.1383 24.0596 20.3284 21.7284 21.5219 19.4005C22.2141 18.0506 23.2576 17.0159 24.538 16.4063C25.353 16.0189 26.1936 15.8227 27.0375 15.8227C27.6445 15.8227 28.231 15.926 28.7817 16.1223C28.3333 10.8157 32.0451 6.10324 37.455 5.25268C38.004 5.16659 38.5633 5.12182 39.114 5.12182C44.1573 5.12182 48.3397 8.68074 49.0575 13.5844C49.4309 16.1343 48.8086 18.6102 47.4821 20.6195C47.5963 20.6126 47.714 20.6092 47.8316 20.6092C48.4198 20.6092 49.0183 20.6953 49.6116 20.8658C50.488 21.1171 51.3967 21.5614 52.314 22.1846C53.7684 23.1747 55.2295 24.1819 56.6754 25.184C56.3992 24.237 56.1213 23.3124 55.8604 22.4481C55.7615 22.1209 55.6098 21.7559 55.4478 21.3702C55.3864 21.2222 55.325 21.0758 55.2654 20.9277C54.6175 19.3299 54.6652 17.5307 55.4018 15.9948C56.1383 14.4539 57.5108 13.2951 59.163 12.8113C59.8654 12.6064 60.5576 12.5031 61.2192 12.5031C61.5414 12.5031 61.8551 12.5272 62.162 12.5754C61.9302 12.0296 61.7545 11.458 61.6437 10.8639C60.7179 5.89834 63.9352 1.20822 68.9684 0.185489C69.5856 0.0597995 70.2147 -0.00390625 70.8387 -0.00390625C75.1234 -0.00390625 78.8351 3.01265 79.6672 7.16729C80.1343 9.50375 79.6587 11.9073 78.3236 13.9356C77.7405 14.8206 77.0296 15.5851 76.218 16.2083C77.2512 17.0382 77.998 18.24 78.3288 19.7018C78.3577 19.8275 78.3833 19.9549 78.4106 20.0927L78.4635 20.3509L78.7755 22.3344C79.229 21.7301 79.8769 21.291 80.6663 21.0827C80.9902 20.9966 81.3159 20.9536 81.6364 20.9536C82.656 20.9536 83.5989 21.384 84.2928 22.1674C84.3406 22.2208 84.3866 22.2776 84.4309 22.3344C85.2476 21.3616 86.0097 20.7538 86.4172 20.4646L86.4888 20.4129L86.5656 20.3664C86.8912 20.1684 87.1606 20.0272 87.3669 19.9429L87.4982 19.8895C87.7949 19.7673 88.3746 19.5279 89.3225 19.5279C92.0812 19.5279 94.325 21.7938 94.325 24.5796C94.325 26.1998 93.5492 27.727 92.2466 28.6775C92.1375 28.7635 91.2458 29.4953 91.2219 30.4061C91.2168 30.6145 91.2048 31.1086 92.3642 32.35C94.0249 34.1252 96.8057 37.0987 96.4272 41.6287C96.2158 44.1579 94.6915 46.5857 92.4495 47.9614C91.198 48.731 89.7982 49.1373 88.4035 49.1373C87.4522 49.1373 86.5263 48.9514 85.6517 48.5864C84.315 48.0251 83.2698 46.918 82.7856 45.5491C82.3372 44.2836 82.4241 42.9544 83.0328 41.8043C83.7063 40.5302 84.6253 39.9585 85.4573 39.6831C85.3192 39.5333 85.1913 39.3955 85.0908 39.287C82.6219 36.6493 81.3636 33.8566 81.3415 30.9726C81.2886 30.9743 81.1829 30.976 81.1829 30.976C80.8146 30.976 80.4549 30.9175 80.1156 30.8107C80.1702 31.1568 80.2247 31.5012 80.2793 31.8472C80.8095 35.1789 81.3466 38.5105 81.8837 41.8404L81.9723 42.3931C82.4412 45.3047 80.8249 48.1301 78.1293 49.1098C77.362 49.3887 76.5777 49.5299 75.7951 49.5299C73.6059 49.5299 71.6793 48.4159 70.6393 46.5478C70.3579 46.0416 70.1618 45.5113 70.022 45.0068C69.1644 45.6094 68.1193 45.9538 66.9701 45.9538C66.3921 45.9538 65.8005 45.8677 65.2106 45.6972C64.3495 45.4493 63.4834 45.024 62.5644 44.3973C61.9182 43.9565 61.272 43.5088 60.6275 43.0612C60.6957 43.2626 60.7639 43.4624 60.8321 43.6638C61.9353 46.9335 60.2848 50.3116 56.9925 51.5203C56.3242 51.7665 55.6302 51.8904 54.9295 51.8904C52.4146 51.8904 50.2152 50.3202 49.3269 47.889C48.8955 46.7096 48.4761 45.5147 48.0686 44.3353C48.2766 46.2792 48.4812 48.2403 48.6773 50.1842C48.9842 53.2403 46.9143 56.0158 43.8641 56.6426C43.402 56.7373 42.9332 56.7855 42.4728 56.7855C40.0654 56.7855 38.0091 55.4666 37.0902 53.4194C36.1354 54.0013 35.0203 54.3199 33.8745 54.3199C33.6052 54.3199 33.3307 54.3027 33.0613 54.2682C30.4475 53.9359 28.5686 52.2589 27.9071 49.6659C27.3905 47.6463 26.8739 45.6283 26.3555 43.6087C25.6394 45.1135 24.3522 46.3463 22.7733 46.8663C21.9925 47.1228 21.2781 47.2485 20.591 47.2485C18.8826 47.2485 17.4282 46.4961 16.1478 44.95L15.9329 44.6917C16.3677 46.5013 16.8059 48.3419 17.2253 50.1687C17.8988 53.1043 16.5638 55.7421 13.7386 57.0506C12.9867 57.3984 12.1342 57.5826 11.2749 57.5826L11.2732 57.5895ZM33.4653 23.6189C33.7194 24.5349 33.9683 25.4508 34.2189 26.3668C34.4099 25.6678 34.7151 25.0273 35.1226 24.4677C34.5446 24.2335 33.9905 23.9477 33.4653 23.6189ZM67.1474 17.6512C67.19 17.5858 67.2327 17.5221 67.2787 17.4584C67.202 17.4274 67.1236 17.3964 67.0485 17.3654C67.0826 17.4601 67.115 17.5565 67.1491 17.6512H67.1474Z" fill="#FAEADE"/>
<path d="M79.8568 15.6349C79.9591 13.5619 81.5448 12.2516 83.3555 12.3532C85.1679 12.4548 86.6154 13.9355 86.5131 16.0085C86.4108 18.0832 84.8269 19.3556 83.0145 19.2541C81.2021 19.1525 79.7528 17.7096 79.8568 15.6349ZM85.9965 15.981C86.08 14.2661 84.8866 12.9076 83.3333 12.8198C81.7801 12.732 80.4587 13.9493 80.3734 15.6641C80.2882 17.3808 81.4834 18.7031 83.0383 18.7909C84.5916 18.8787 85.9113 17.6958 85.9965 15.981ZM82.0597 13.8236L83.2805 13.8924C83.9829 13.932 84.6734 14.2213 84.6291 15.1149C84.6052 15.5798 84.2523 15.9896 83.8397 16.0757L84.6871 17.701L84.0579 17.6649L83.3862 16.2289L82.4604 16.1772L82.3922 17.5719L81.8755 17.5426L82.0597 13.8253V13.8236ZM83.0401 15.7416C83.6317 15.7743 84.0477 15.6194 84.0733 15.1201C84.0937 14.6913 83.8874 14.3935 83.1833 14.3539L82.5541 14.3194L82.4842 15.7124L83.0401 15.7433V15.7416Z" fill="#502C1E"/>
<path d="M37.0448 45.7469C37.2443 46.4959 37.5085 47.2518 37.5495 48.0162C37.6739 50.3734 35.6996 52.1416 33.3654 51.8455C31.7355 51.6389 30.6698 50.6712 30.2589 49.0631C29.0245 44.2369 27.785 39.4125 26.5403 34.5898C26.2761 33.5636 25.9794 32.5444 25.6998 31.5233C25.6589 31.5199 25.6179 31.5165 25.5787 31.513C24.7382 33.6566 23.8976 35.8002 23.0434 37.9731C23.8686 38.6463 24.4006 39.5107 24.5216 40.6178C24.7007 42.238 23.5634 44.0389 22.0204 44.5469C20.3103 45.1099 19.1629 44.7793 18.0103 43.3881C15.9114 40.8536 13.8143 38.3158 11.7137 35.7813C11.5791 35.6194 11.4375 35.4645 11.2091 35.2045C11.2466 35.4817 11.2551 35.6436 11.2926 35.7968C11.7223 37.5943 12.1588 39.3919 12.5884 41.1894C13.3488 44.3695 14.1263 47.5462 14.8577 50.7332C15.2789 52.5703 14.498 54.0098 12.7231 54.831C11.2602 55.5077 9.28414 55.0445 8.35492 53.7067C7.97982 53.1661 7.70532 52.5015 7.57403 51.8524C5.87075 43.4174 4.18963 34.9755 2.5409 26.5285C2.39257 25.7657 2.38234 24.922 2.5409 24.1645C3.02 21.8521 5.16318 20.881 7.20916 22.0277C7.82126 22.3704 8.3839 22.8507 8.86641 23.369C11.6507 26.358 14.4042 29.378 17.168 32.3859C17.2464 32.4703 17.33 32.5495 17.4664 32.689C17.8875 31.866 18.2933 31.0808 18.694 30.2923C20.3546 27.0381 22.0119 23.7822 23.6794 20.5315C24.1073 19.6982 24.7279 19.0301 25.5736 18.6272C27.2343 17.8369 28.8983 18.4034 29.756 20.1217C30.1686 20.9465 30.438 21.8521 30.692 22.744C31.4064 25.2509 32.0696 27.7716 32.7687 30.2819C33.6382 33.4104 34.5265 36.5337 35.3944 39.6639C35.957 41.6887 36.5043 43.7152 37.0431 45.7469H37.0448ZM66.536 23.9355C66.0143 21.7695 65.2777 19.6482 64.5326 17.5442C63.7552 15.3472 62.0331 14.5294 59.8371 15.1699C57.7604 15.776 56.6982 17.9902 57.5132 19.9995C57.7468 20.5746 58.0059 21.1427 58.185 21.735C58.7289 23.5395 59.2728 25.3473 59.7519 27.1707C60.0622 28.3484 60.2582 29.5553 60.5481 30.9534C60.3026 30.7382 60.1542 30.5815 59.982 30.461C56.9778 28.3742 53.9805 26.2771 50.9575 24.2196C50.3437 23.8012 49.6566 23.4293 48.9507 23.2261C46.9269 22.6459 45.1827 23.6497 44.8622 25.5953C44.7394 26.3391 44.7803 27.1707 44.9815 27.8956C45.3992 29.409 45.9687 30.8811 46.4836 32.367C47.3054 34.7327 48.134 37.095 48.9593 39.459C49.8407 41.9883 50.6898 44.5314 51.6088 47.0469C52.3164 48.9822 54.318 49.9033 56.1646 49.2232C58.231 48.4639 59.2216 46.4959 58.5362 44.4625C57.8525 42.4394 57.1415 40.4249 56.4476 38.4053C56.2856 37.9318 56.1509 37.4497 56.0043 36.971C56.376 37.0985 56.63 37.2741 56.8824 37.4514C59.2284 39.0957 61.5626 40.7572 63.9274 42.3705C64.5258 42.7786 65.1925 43.1471 65.8796 43.3451C68.0893 43.9821 69.8369 42.6891 69.9477 40.3698C69.9784 39.7362 69.9341 39.0785 69.7994 38.4604C68.7372 33.6119 67.7005 28.7564 66.5377 23.9337L66.536 23.9355ZM44.99 38.4191C44.6746 35.4765 43.875 28.2778 43.7914 27.6218C43.5596 25.7898 42.1495 24.2316 39.5716 24.5519C37.7131 24.7826 36.2383 26.1411 36.4395 28.5292C36.6595 31.1273 36.9953 33.7169 37.2784 36.3099C37.6927 40.1219 38.0917 43.9374 38.5213 47.7476C38.6782 49.1354 38.7754 50.549 39.1232 51.8937C39.5989 53.7325 41.4147 54.652 43.3839 54.2491C45.1964 53.8772 46.4478 52.2725 46.2637 50.4422C45.8613 46.4322 45.4214 42.4274 44.9918 38.4208L44.99 38.4191ZM77.8827 32.2448C77.274 28.419 76.6739 24.5932 76.0771 20.8036C76.0345 20.5952 76.0004 20.423 75.9629 20.2509C75.5247 18.3018 73.9766 17.0484 71.5828 17.4822C69.6919 17.8249 68.345 19.3263 68.6758 21.5697C69.2674 25.5953 69.9324 29.6087 70.5717 33.6256C71.09 36.8746 71.6015 40.1236 72.1522 43.3674C72.2682 44.0475 72.4319 44.7621 72.7609 45.3544C73.6339 46.9212 75.4906 47.4722 77.3098 46.8093C78.9193 46.2239 79.8622 44.552 79.5792 42.7941C79.0131 39.2765 78.4454 35.7606 77.8844 32.2413L77.8827 32.2448ZM81.2859 23.462C80.8341 23.5825 80.5715 23.8976 80.505 24.3659C80.3652 25.3439 80.2254 26.3201 80.0992 27.2981C80.077 27.4651 80.0992 27.6511 80.1487 27.8129C80.285 28.264 80.7693 28.5619 81.2654 28.5274C81.7854 28.4896 82.1929 28.159 82.2833 27.6803C82.3754 27.1862 82.6311 25.1924 82.7061 24.6965C82.7556 24.3745 82.7113 24.0629 82.4879 23.8098C82.1622 23.443 81.7462 23.3397 81.2876 23.4603L81.2859 23.462ZM71.9954 15.5125C75.598 14.7808 78.0004 11.2167 77.2877 7.65779C76.575 4.10232 73.0951 1.85367 69.4481 2.59404C65.7244 3.3499 63.3528 6.77279 64.0314 10.4126C64.6776 13.8734 68.3808 16.246 71.9954 15.5125ZM40.1257 22.6855C44.3217 22.0432 47.2645 18.1055 46.6541 13.944C46.0454 9.78418 42.1274 7.00179 37.8291 7.67845C33.5581 8.34994 30.663 12.1688 31.2529 16.3562C31.8207 20.3972 35.928 23.326 40.1257 22.6855ZM90.6003 34.0423C89.3045 32.6563 88.764 31.5526 88.7947 30.3491C88.8492 28.2864 90.4724 26.9624 90.8066 26.711C91.4886 26.2237 91.8977 25.43 91.8977 24.588C91.8977 23.1555 90.7435 21.9899 89.3249 21.9899C88.8526 21.9899 88.6242 22.0846 88.4042 22.1741L88.2729 22.2275C88.203 22.255 87.9711 22.3859 87.8177 22.4771C86.9771 23.0746 84.2031 25.4041 83.7973 30.2578C83.5876 32.7802 84.5884 35.1856 86.8578 37.6133C87.9592 38.791 88.6924 39.6277 88.8543 40.5076C88.8612 40.5506 88.868 40.5937 88.8697 40.6401C88.8867 41.0981 88.6122 41.4752 88.1041 41.6801C87.7955 41.7903 87.4614 41.8265 87.1374 41.8609C86.3582 41.9435 85.6831 42.0159 85.1784 42.9714C84.897 43.5017 84.8612 44.1285 85.0761 44.7345C85.3267 45.4439 85.8911 46.0414 86.5867 46.3323C87.1647 46.5751 87.7768 46.6974 88.4076 46.6974C89.3573 46.6974 90.3206 46.415 91.1919 45.8795C92.7826 44.9015 93.8636 43.1987 94.0119 41.4356C94.2984 37.9972 92.1637 35.7141 90.6037 34.0475L90.6003 34.0423Z" fill="#502C1E"/>
</g>
<defs>
<clipPath id="clip0_2042_241">
<rect width="96.4632" height="57.59" fill="white"/>
</clipPath>
</defs>
</svg>
