<svg width="20" height="20" viewBox="0 0 20 20" fill="none" xmlns="http://www.w3.org/2000/svg">
<path d="M5.00042 2.5C3.65139 2.5 2.42537 3.61963 2.60954 5.0996C3.40754 11.5121 8.48831 16.5929 14.9008 17.3909C16.3808 17.5751 17.5004 16.349 17.5004 15V13.9067C17.5004 12.8027 16.7762 11.8294 15.7188 11.5122L14.4433 11.1295C13.6138 10.8806 12.7146 11.1073 12.1022 11.7197C11.88 11.9419 11.5944 11.9559 11.4133 11.8438C10.0917 11.026 8.97441 9.90876 8.15665 8.58714C8.04456 8.40598 8.05854 8.12039 8.28067 7.89826C8.89307 7.28586 9.11978 6.38666 8.87091 5.55712L8.48827 4.28163C8.17103 3.22417 7.19772 2.5 6.0937 2.5H5.00042Z" fill="#FAEADE"/>
</svg>
