<svg width="1440" height="236" viewBox="0 0 1440 236" fill="none" xmlns="http://www.w3.org/2000/svg">
<path d="M1375.5 114.668C1324.45 115.814 1314.52 62.4616 1263.5 64.1125C1224.32 65.3802 1213.52 96.0172 1174.5 98.9396C1135.45 101.864 1114.96 68.094 1078 77.9686C1044.48 86.924 1070.92 110.235 1049.5 131.52C1036.21 144.725 1010.94 140.245 998.497 154.363C980.055 175.296 971.73 213.329 939.503 217.65C868.17 227.215 914.198 113.801 844.5 98.9396C788.715 87.0453 760.477 132.645 702.5 131.52C656.597 130.628 635.39 108.383 589.5 107.178C546.752 106.056 524.701 124.783 482 122.906C440.324 121.075 419.921 89.791 380 98.9396C349.604 105.904 350.643 133.805 320 140.133C302.117 143.825 290.285 136.183 272.5 140.133C221.468 151.464 270.227 236 217 236C156.5 236 215.808 131.415 148.5 114.293C90.4402 99.5231 0 152.491 0 152.491V0H1440V98.9396C1440 98.9396 1401.97 114.073 1375.5 114.668Z" fill="#FAEADE"/>
</svg>
